<svg xmlns="http://www.w3.org/2000/svg" xmlns:xlink="http://www.w3.org/1999/xlink" width="2000" zoomAndPan="magnify" viewBox="0 0 1500 1499.999933" height="2000" preserveAspectRatio="xMidYMid meet" version="1.0"><defs><g/><clipPath id="1adce616b0"><path d="M 77 594 L 306.5 594 L 306.5 874 L 77 874 Z M 77 594 " clip-rule="nonzero"/></clipPath><clipPath id="820d63a135"><path d="M 27.5 563.734375 L 206 563.734375 L 206 903.484375 L 27.5 903.484375 Z M 27.5 563.734375 " clip-rule="nonzero"/></clipPath><clipPath id="73064e0bd6"><path d="M 326 659.804688 L 359 659.804688 L 359 692 L 326 692 Z M 326 659.804688 " clip-rule="nonzero"/></clipPath><clipPath id="cf4b9f609a"><path d="M 306.933594 712.304688 L 377.871094 712.304688 L 377.871094 869.804688 L 306.933594 869.804688 Z M 306.933594 712.304688 " clip-rule="nonzero"/></clipPath><clipPath id="73476f3110"><path d="M 402.617188 691.597656 L 580.125 691.597656 L 580.125 877.734375 L 402.617188 877.734375 Z M 402.617188 691.597656 " clip-rule="nonzero"/></clipPath><clipPath id="28476be95e"><path d="M 1018.378906 738.65625 L 1124.878906 738.65625 L 1124.878906 845.15625 L 1018.378906 845.15625 Z M 1018.378906 738.65625 " clip-rule="nonzero"/></clipPath><clipPath id="4dcf46857b"><path d="M 598.507812 586.542969 L 842 586.542969 L 842 829 L 598.507812 829 Z M 598.507812 586.542969 " clip-rule="nonzero"/></clipPath><clipPath id="fe573ab0c7"><path d="M 656 717 L 899.257812 717 L 899.257812 887.292969 L 656 887.292969 Z M 656 717 " clip-rule="nonzero"/></clipPath><clipPath id="83f011e887"><path d="M 993.675781 716.074219 L 1149.675781 716.074219 L 1149.675781 872.074219 L 993.675781 872.074219 Z M 993.675781 716.074219 " clip-rule="nonzero"/></clipPath></defs><rect x="-150" width="1800" fill="#ffffff" y="-149.999993" height="1799.99992" fill-opacity="1"/><rect x="-150" width="1800" fill="#ffffff" y="-149.999993" height="1799.99992" fill-opacity="1"/><rect x="-150" width="1800" fill="#ffffff" y="-149.999993" height="1799.99992" fill-opacity="1"/><g clip-path="url(#1adce616b0)"><path fill="#2e475d" d="M 306.5 796.628906 L 306.5 795.835938 C 306.5 777.214844 301.851562 762.667969 292.632812 752.160156 C 283.410156 741.652344 270.664062 733.347656 254.601562 727.222656 C 259.574219 724.558594 264.296875 721.371094 268.601562 717.644531 C 272.980469 713.917969 276.761719 709.59375 280.078125 704.683594 C 283.394531 699.757812 285.980469 694.25 287.984375 688.128906 C 289.972656 682.007812 290.972656 674.972656 290.972656 666.980469 L 290.972656 666.1875 C 290.972656 644.109375 282.8125 626.566406 266.554688 613.53125 C 252.386719 602.214844 233.617188 595.824219 210.203125 594.328125 C 215.164062 612.917969 213.308594 631.507812 207.226562 649.617188 C 212.308594 650.84375 216.582031 652.714844 220.09375 655.199219 C 227 660.125 230.449219 667.234375 230.449219 676.542969 L 230.449219 677.351562 C 230.449219 687.726562 226.460938 695.222656 218.511719 699.878906 C 210.546875 704.535156 199.785156 706.867188 186.246094 706.867188 L 175.292969 706.867188 C 172.796875 710.222656 170.242188 713.527344 167.640625 716.777344 C 157.855469 729.066406 145.988281 742.953125 134.125 757.921875 L 200.59375 757.921875 C 216.523438 757.921875 228.074219 760.644531 235.234375 766.109375 C 242.40625 771.558594 245.992188 778.9375 245.992188 788.246094 L 245.992188 789.039062 C 245.992188 799.410156 242.136719 807.058594 234.441406 811.96875 C 226.746094 816.894531 216.121094 819.347656 202.582031 819.347656 L 129.683594 819.347656 L 129.683594 763.550781 C 103.773438 796.867188 79.027344 835.125 77.066406 873.1875 L 202.355469 873.1875 C 217.957031 873.1875 232.230469 871.585938 245.09375 868.398438 C 257.902344 865.207031 268.914062 860.417969 278.089844 854.042969 C 287.175781 847.652344 294.214844 839.6875 299.132812 830.109375 C 304.046875 820.5625 306.5 809.378906 306.5 796.628906 " fill-opacity="1" fill-rule="nonzero"/></g><g clip-path="url(#820d63a135)"><path fill="#ff2e11" d="M 127.382812 575.394531 C 142.640625 575.394531 155 587.773438 155 603.054688 C 155 618.335938 142.640625 630.714844 127.382812 630.714844 C 112.125 630.714844 99.765625 618.335938 99.765625 603.054688 C 99.765625 587.789062 112.140625 575.394531 127.382812 575.394531 M 185.320312 563.765625 C 200.308594 612.648438 177.625 634.082031 132.957031 643.480469 C 78.695312 654.902344 36.867188 660.199219 27.5 693.667969 C 89.695312 657.011719 109.972656 682.921875 79.414062 743.058594 C 47.40625 806.042969 41.425781 860.671875 72.40625 903.449219 C 52.632812 833.222656 121.347656 762.082031 161.378906 711.792969 C 201.953125 660.8125 223.15625 610.808594 185.320312 563.765625 Z M 185.320312 563.765625 " fill-opacity="1" fill-rule="evenodd"/></g><g clip-path="url(#73064e0bd6)"><path fill="#ff2e11" d="M 342.394531 659.804688 C 351.179688 659.804688 358.296875 666.960938 358.296875 675.78125 C 358.296875 684.617188 351.179688 691.777344 342.394531 691.777344 C 333.625 691.777344 326.507812 684.617188 326.507812 675.78125 C 326.507812 666.960938 333.625 659.804688 342.394531 659.804688 " fill-opacity="1" fill-rule="nonzero"/></g><g clip-path="url(#cf4b9f609a)"><path fill="#ff2e11" d="M 317.386719 726.769531 C 311.789062 734.636719 308.195312 743.773438 306.933594 753.375 C 315.644531 738.292969 326.507812 731.300781 326.507812 750.371094 L 326.507812 855.128906 C 326.507812 871.6875 351.289062 877.410156 367.417969 855.335938 C 372.996094 847.46875 376.589844 838.332031 377.851562 828.730469 C 369.140625 843.8125 358.296875 850.804688 358.296875 831.734375 L 358.296875 726.976562 C 358.296875 710.402344 333.496094 704.695312 317.386719 726.769531 " fill-opacity="1" fill-rule="nonzero"/></g><path fill="#ff2e11" d="M 493.109375 728.429688 L 392.054688 728.429688 C 407.324219 709.566406 429.84375 698.054688 454.039062 696.753906 L 544.855469 691.859375 C 525.539062 674.425781 499.835938 663.976562 471.679688 664.523438 C 413.371094 665.648438 366.601562 714.222656 367.441406 772.679688 C 367.699219 790.824219 372.496094 807.863281 380.71875 822.730469 L 367.429688 850.378906 L 493.109375 728.429688 " fill-opacity="1" fill-rule="nonzero"/><g clip-path="url(#73476f3110)"><path fill="#000000" d="M 580.125 691.859375 L 454.445312 813.804688 L 555.5 813.804688 C 540.230469 832.671875 517.714844 844.179688 493.515625 845.484375 L 402.699219 850.378906 C 422.011719 867.808594 447.714844 878.261719 475.875 877.714844 C 534.183594 876.585938 580.953125 828.015625 580.113281 769.554688 C 579.855469 751.414062 575.058594 734.375 566.835938 719.507812 L 580.125 691.859375 " fill-opacity="1" fill-rule="nonzero"/></g><g clip-path="url(#28476be95e)"><path fill="#ff2e11" d="M 1084.097656 843.683594 L 1084.097656 772 L 1091.105469 764.996094 L 1091.105469 766.421875 L 1085.105469 772.417969 L 1085.105469 843.433594 C 1084.773438 843.523438 1084.4375 843.605469 1084.097656 843.683594 Z M 1071.628906 738.65625 C 1101.03125 738.65625 1124.878906 762.503906 1124.878906 791.90625 C 1124.878906 808.460938 1117.324219 823.25 1105.472656 833.019531 L 1105.472656 833.015625 C 1101.464844 836.316406 1096.96875 839.042969 1092.109375 841.074219 L 1092.109375 763.992188 L 1107.605469 763.992188 L 1107.605469 824.894531 C 1115.574219 816.203125 1120.441406 804.625 1120.441406 791.90625 C 1120.441406 764.953125 1098.582031 743.09375 1071.628906 743.09375 C 1044.675781 743.09375 1022.816406 764.953125 1022.816406 791.90625 C 1022.816406 818.863281 1044.675781 840.71875 1071.628906 840.71875 C 1075.175781 840.71875 1078.632812 840.339844 1081.964844 839.621094 L 1081.964844 844.152344 C 1078.621094 844.8125 1075.167969 845.160156 1071.628906 845.160156 C 1042.226562 845.15625 1018.378906 821.3125 1018.378906 791.90625 C 1018.378906 762.503906 1042.226562 738.65625 1071.628906 738.65625 Z M 1071.628906 738.65625 " fill-opacity="1" fill-rule="evenodd"/></g><path fill="#ff2e11" d="M 1032.820312 815.320312 L 1032.820312 807.246094 L 1039.824219 800.242188 L 1039.824219 801.667969 L 1033.828125 807.664062 L 1033.828125 816.90625 C 1033.480469 816.386719 1033.144531 815.855469 1032.820312 815.320312 Z M 1056.328125 834.574219 C 1050.523438 832.492188 1045.265625 829.257812 1040.832031 825.148438 L 1040.832031 799.234375 L 1056.328125 799.234375 Z M 1056.328125 834.574219 " fill-opacity="1" fill-rule="evenodd"/><path fill="#2e475d" d="M 1058.460938 835.28125 L 1058.460938 789.625 L 1065.464844 782.621094 L 1065.464844 784.042969 L 1059.46875 790.039062 L 1059.46875 835.574219 C 1059.128906 835.480469 1058.792969 835.382812 1058.460938 835.28125 Z M 1081.964844 836.042969 C 1078.644531 836.816406 1075.1875 837.226562 1071.628906 837.226562 C 1069.886719 837.226562 1068.164062 837.125 1066.472656 836.933594 L 1066.472656 781.613281 L 1081.964844 781.613281 Z M 1081.964844 836.042969 " fill-opacity="1" fill-rule="evenodd"/><path fill="#2e475d" d="M 1071.628906 746.8125 C 1085.28125 746.8125 1097.519531 752.882812 1105.789062 762.46875 C 1097.625 755.125 1086.828125 750.652344 1074.988281 750.652344 C 1049.554688 750.652344 1028.933594 771.273438 1028.933594 796.703125 C 1028.933594 802.777344 1030.109375 808.574219 1032.246094 813.882812 C 1028.609375 807.382812 1026.535156 799.886719 1026.535156 791.90625 C 1026.535156 767.007812 1046.726562 746.8125 1071.628906 746.8125 Z M 1071.628906 746.8125 " fill-opacity="1" fill-rule="evenodd"/><g clip-path="url(#4dcf46857b)"><path fill="#2e475d" d="M 636.617188 736.917969 C 636.617188 675.015625 686.980469 624.652344 748.882812 624.652344 C 773.160156 624.652344 795.667969 632.402344 814.050781 645.554688 L 841.3125 618.292969 C 830.957031 610.203125 819.617188 603.527344 807.421875 598.375 C 788.867188 590.527344 769.175781 586.546875 748.882812 586.546875 C 728.589844 586.546875 708.898438 590.527344 690.347656 598.375 C 672.4375 605.945312 656.359375 616.789062 642.554688 630.589844 C 628.75 644.394531 617.910156 660.472656 610.335938 678.382812 C 602.492188 696.933594 598.511719 716.628906 598.511719 736.917969 C 598.511719 757.210938 602.492188 776.90625 610.335938 795.457031 C 615.425781 807.484375 621.988281 818.6875 629.929688 828.929688 L 657.207031 801.652344 C 644.242188 783.34375 636.617188 761.007812 636.617188 736.917969 " fill-opacity="1" fill-rule="nonzero"/></g><g clip-path="url(#fe573ab0c7)"><path fill="#ff2e11" d="M 898.101562 718.160156 L 880.203125 718.160156 L 880.203125 717.867188 L 794.882812 717.867188 L 756.773438 755.972656 L 859.527344 755.972656 C 850.453125 808.832031 804.292969 849.183594 748.882812 849.183594 C 724.796875 849.183594 702.457031 841.558594 684.152344 828.597656 L 656.871094 855.875 C 667.117188 863.816406 678.316406 870.378906 690.347656 875.464844 C 708.898438 883.3125 728.589844 887.292969 748.882812 887.292969 C 769.175781 887.292969 788.867188 883.3125 807.421875 875.464844 C 825.328125 867.890625 841.40625 857.050781 855.210938 843.246094 C 869.011719 829.441406 879.855469 813.363281 887.429688 795.457031 C 895.273438 776.90625 899.253906 757.210938 899.253906 736.917969 C 899.253906 730.605469 898.867188 724.34375 898.101562 718.160156 " fill-opacity="1" fill-rule="nonzero"/></g><path fill="#ff2e11" d="M 756.503906 823.847656 C 705.6875 823.847656 664.492188 782.65625 664.492188 731.835938 C 664.492188 701.519531 679.160156 674.625 701.785156 657.863281 C 674.886719 673.921875 656.871094 703.316406 656.871094 736.917969 C 656.871094 787.734375 698.066406 828.929688 748.882812 828.929688 C 769.378906 828.929688 788.308594 822.226562 803.605469 810.894531 C 789.828125 819.117188 773.71875 823.847656 756.503906 823.847656 " fill-opacity="1" fill-rule="nonzero"/><g fill="#2e475d" fill-opacity="1"><g transform="translate(885.549797, 867.467425)"><g><path d="M 21.140625 0 L 21.140625 -146.703125 L 56.921875 -146.703125 L 56.921875 -124.890625 L 59.71875 -124.359375 C 63.257812 -132.515625 67.910156 -138.5 73.671875 -142.3125 C 79.441406 -146.125 86.453125 -148.03125 94.703125 -148.03125 C 103.035156 -148.03125 109.375 -146.613281 113.71875 -143.78125 L 107.46875 -111.984375 L 104.671875 -111.453125 C 102.273438 -112.429688 99.96875 -113.140625 97.75 -113.578125 C 95.539062 -114.023438 92.835938 -114.25 89.640625 -114.25 C 79.359375 -114.25 71.507812 -110.632812 66.09375 -103.40625 C 60.6875 -96.175781 57.984375 -84.582031 57.984375 -68.625 L 57.984375 0 Z M 21.140625 0 "/></g></g></g><g fill="#2e475d" fill-opacity="1"><g transform="translate(1162.785989, 867.505681)"><g><path d="M 174.640625 0 L 135.125 0 L 112.25 -87.78125 C 111.1875 -91.769531 109.101562 -101.613281 106 -117.3125 L 99.09375 -87.515625 L 75.9375 0 L 36.4375 0 L -0.796875 -143.90625 L 34.3125 -143.90625 L 57.984375 -33.921875 L 59.84375 -43.765625 L 63.171875 -59.3125 L 85.78125 -143.90625 L 125.828125 -143.90625 L 147.90625 -59.3125 C 149.144531 -54.707031 150.960938 -46.242188 153.359375 -33.921875 L 157.078125 -51.46875 L 177.828125 -143.90625 L 212.40625 -143.90625 Z M 174.640625 0 "/></g></g></g><g fill="#2e475d" fill-opacity="1"><g transform="translate(808.960038, 692.849344)"><g><path d="M 2 -13.78125 C 2 -18.207031 3.1875 -21.632812 5.5625 -24.0625 C 7.9375 -26.5 11.273438 -27.71875 15.578125 -27.71875 C 18.597656 -27.71875 21.050781 -27.207031 22.9375 -26.1875 C 24.832031 -25.164062 26.285156 -23.53125 27.296875 -21.28125 L 23.78125 -20.234375 C 23 -21.785156 21.925781 -22.914062 20.5625 -23.625 C 19.207031 -24.332031 17.515625 -24.6875 15.484375 -24.6875 C 12.328125 -24.6875 9.914062 -23.734375 8.25 -21.828125 C 6.582031 -19.921875 5.75 -17.238281 5.75 -13.78125 C 5.75 -10.332031 6.632812 -7.609375 8.40625 -5.609375 C 10.175781 -3.609375 12.625 -2.609375 15.75 -2.609375 C 17.53125 -2.609375 19.191406 -2.878906 20.734375 -3.421875 C 22.285156 -3.972656 23.539062 -4.710938 24.5 -5.640625 L 24.5 -10.5625 L 16.34375 -10.5625 L 16.34375 -13.65625 L 27.90625 -13.65625 L 27.90625 -4.25 C 26.457031 -2.769531 24.679688 -1.625 22.578125 -0.8125 C 20.484375 -0.0078125 18.207031 0.390625 15.75 0.390625 C 12.894531 0.390625 10.429688 -0.175781 8.359375 -1.3125 C 6.296875 -2.445312 4.71875 -4.082031 3.625 -6.21875 C 2.539062 -8.363281 2 -10.882812 2 -13.78125 Z M 2 -13.78125 "/></g></g></g><g fill="#2e475d" fill-opacity="1"><g transform="translate(839.824167, 692.849344)"><g/></g></g><g fill="#2e475d" fill-opacity="1"><g transform="translate(850.848454, 692.849344)"><g><path d="M 22.5625 0 L 15.46875 -11.34375 L 6.953125 -11.34375 L 6.953125 0 L 3.25 0 L 3.25 -27.296875 L 16.109375 -27.296875 C 19.179688 -27.296875 21.550781 -26.609375 23.21875 -25.234375 C 24.894531 -23.859375 25.734375 -21.945312 25.734375 -19.5 C 25.734375 -17.46875 25.140625 -15.757812 23.953125 -14.375 C 22.773438 -13 21.144531 -12.128906 19.0625 -11.765625 L 26.8125 0 Z M 22.015625 -19.453125 C 22.015625 -21.046875 21.472656 -22.257812 20.390625 -23.09375 C 19.316406 -23.925781 17.765625 -24.34375 15.734375 -24.34375 L 6.953125 -24.34375 L 6.953125 -14.265625 L 15.890625 -14.265625 C 17.835938 -14.265625 19.34375 -14.71875 20.40625 -15.625 C 21.476562 -16.539062 22.015625 -17.816406 22.015625 -19.453125 Z M 22.015625 -19.453125 "/></g></g></g><g fill="#2e475d" fill-opacity="1"><g transform="translate(879.503851, 692.849344)"><g/></g></g><g fill="#2e475d" fill-opacity="1"><g transform="translate(890.528138, 692.849344)"><g><path d="M 28.96875 -13.78125 C 28.96875 -10.925781 28.421875 -8.425781 27.328125 -6.28125 C 26.242188 -4.132812 24.679688 -2.484375 22.640625 -1.328125 C 20.597656 -0.179688 18.1875 0.390625 15.40625 0.390625 C 12.601562 0.390625 10.179688 -0.175781 8.140625 -1.3125 C 6.109375 -2.445312 4.554688 -4.085938 3.484375 -6.234375 C 2.410156 -8.390625 1.875 -10.90625 1.875 -13.78125 C 1.875 -18.144531 3.066406 -21.554688 5.453125 -24.015625 C 7.847656 -26.484375 11.175781 -27.71875 15.4375 -27.71875 C 18.21875 -27.71875 20.628906 -27.160156 22.671875 -26.046875 C 24.710938 -24.941406 26.269531 -23.335938 27.34375 -21.234375 C 28.425781 -19.128906 28.96875 -16.644531 28.96875 -13.78125 Z M 25.1875 -13.78125 C 25.1875 -17.175781 24.335938 -19.84375 22.640625 -21.78125 C 20.941406 -23.71875 18.539062 -24.6875 15.4375 -24.6875 C 12.3125 -24.6875 9.894531 -23.726562 8.1875 -21.8125 C 6.488281 -19.90625 5.640625 -17.226562 5.640625 -13.78125 C 5.640625 -10.351562 6.5 -7.632812 8.21875 -5.625 C 9.945312 -3.613281 12.34375 -2.609375 15.40625 -2.609375 C 18.5625 -2.609375 20.976562 -3.582031 22.65625 -5.53125 C 24.34375 -7.476562 25.1875 -10.226562 25.1875 -13.78125 Z M 25.1875 -13.78125 "/></g></g></g><g fill="#2e475d" fill-opacity="1"><g transform="translate(921.392268, 692.849344)"><g/></g></g><g fill="#2e475d" fill-opacity="1"><g transform="translate(932.416555, 692.849344)"><g><path d="M 29.28125 0 L 24.859375 0 L 20.140625 -17.34375 C 19.828125 -18.425781 19.375 -20.367188 18.78125 -23.171875 C 18.445312 -21.671875 18.160156 -20.414062 17.921875 -19.40625 C 17.691406 -18.40625 15.929688 -11.9375 12.640625 0 L 8.21875 0 L 0.171875 -27.296875 L 4.03125 -27.296875 L 8.9375 -9.953125 C 9.519531 -7.785156 10.054688 -5.550781 10.546875 -3.25 C 10.847656 -4.675781 11.203125 -6.226562 11.609375 -7.90625 C 12.023438 -9.582031 13.820312 -16.046875 17 -27.296875 L 20.546875 -27.296875 L 25.296875 -10.3125 C 26.015625 -7.53125 26.582031 -5.175781 27 -3.25 L 27.171875 -3.9375 C 27.515625 -5.414062 27.796875 -6.625 28.015625 -7.5625 C 28.234375 -8.5 30.050781 -15.078125 33.46875 -27.296875 L 37.328125 -27.296875 Z M 29.28125 0 "/></g></g></g><g fill="#2e475d" fill-opacity="1"><g transform="translate(969.858461, 692.849344)"><g/></g></g><g fill="#2e475d" fill-opacity="1"><g transform="translate(980.882749, 692.849344)"><g/></g></g><g fill="#2e475d" fill-opacity="1"><g transform="translate(991.907036, 692.849344)"><g/></g></g><g fill="#2e475d" fill-opacity="1"><g transform="translate(1002.928771, 692.849344)"><g><path d="M 15.0625 -11.3125 L 15.0625 0 L 11.375 0 L 11.375 -11.3125 L 0.875 -27.296875 L 4.9375 -27.296875 L 13.25 -14.296875 L 21.53125 -27.296875 L 25.59375 -27.296875 Z M 15.0625 -11.3125 "/></g></g></g><g fill="#2e475d" fill-opacity="1"><g transform="translate(1029.39481, 692.849344)"><g/></g></g><g fill="#2e475d" fill-opacity="1"><g transform="translate(1040.419097, 692.849344)"><g><path d="M 28.96875 -13.78125 C 28.96875 -10.925781 28.421875 -8.425781 27.328125 -6.28125 C 26.242188 -4.132812 24.679688 -2.484375 22.640625 -1.328125 C 20.597656 -0.179688 18.1875 0.390625 15.40625 0.390625 C 12.601562 0.390625 10.179688 -0.175781 8.140625 -1.3125 C 6.109375 -2.445312 4.554688 -4.085938 3.484375 -6.234375 C 2.410156 -8.390625 1.875 -10.90625 1.875 -13.78125 C 1.875 -18.144531 3.066406 -21.554688 5.453125 -24.015625 C 7.847656 -26.484375 11.175781 -27.71875 15.4375 -27.71875 C 18.21875 -27.71875 20.628906 -27.160156 22.671875 -26.046875 C 24.710938 -24.941406 26.269531 -23.335938 27.34375 -21.234375 C 28.425781 -19.128906 28.96875 -16.644531 28.96875 -13.78125 Z M 25.1875 -13.78125 C 25.1875 -17.175781 24.335938 -19.84375 22.640625 -21.78125 C 20.941406 -23.71875 18.539062 -24.6875 15.4375 -24.6875 C 12.3125 -24.6875 9.894531 -23.726562 8.1875 -21.8125 C 6.488281 -19.90625 5.640625 -17.226562 5.640625 -13.78125 C 5.640625 -10.351562 6.5 -7.632812 8.21875 -5.625 C 9.945312 -3.613281 12.34375 -2.609375 15.40625 -2.609375 C 18.5625 -2.609375 20.976562 -3.582031 22.65625 -5.53125 C 24.34375 -7.476562 25.1875 -10.226562 25.1875 -13.78125 Z M 25.1875 -13.78125 "/></g></g></g><g fill="#2e475d" fill-opacity="1"><g transform="translate(1071.283227, 692.849344)"><g/></g></g><g fill="#2e475d" fill-opacity="1"><g transform="translate(1082.307514, 692.849344)"><g><path d="M 14.171875 0.390625 C 11.929688 0.390625 9.976562 -0.015625 8.3125 -0.828125 C 6.644531 -1.640625 5.351562 -2.820312 4.4375 -4.375 C 3.519531 -5.925781 3.0625 -7.773438 3.0625 -9.921875 L 3.0625 -27.296875 L 6.765625 -27.296875 L 6.765625 -10.234375 C 6.765625 -7.734375 7.394531 -5.835938 8.65625 -4.546875 C 9.925781 -3.253906 11.753906 -2.609375 14.140625 -2.609375 C 16.597656 -2.609375 18.507812 -3.273438 19.875 -4.609375 C 21.238281 -5.953125 21.921875 -7.910156 21.921875 -10.484375 L 21.921875 -27.296875 L 25.59375 -27.296875 L 25.59375 -10.265625 C 25.59375 -8.054688 25.125 -6.148438 24.1875 -4.546875 C 23.257812 -2.953125 21.9375 -1.726562 20.21875 -0.875 C 18.507812 -0.03125 16.492188 0.390625 14.171875 0.390625 Z M 14.171875 0.390625 "/></g></g></g><g fill="#2e475d" fill-opacity="1"><g transform="translate(1110.962911, 692.849344)"><g/></g></g><g fill="#2e475d" fill-opacity="1"><g transform="translate(1121.987198, 692.849344)"><g><path d="M 22.5625 0 L 15.46875 -11.34375 L 6.953125 -11.34375 L 6.953125 0 L 3.25 0 L 3.25 -27.296875 L 16.109375 -27.296875 C 19.179688 -27.296875 21.550781 -26.609375 23.21875 -25.234375 C 24.894531 -23.859375 25.734375 -21.945312 25.734375 -19.5 C 25.734375 -17.46875 25.140625 -15.757812 23.953125 -14.375 C 22.773438 -13 21.144531 -12.128906 19.0625 -11.765625 L 26.8125 0 Z M 22.015625 -19.453125 C 22.015625 -21.046875 21.472656 -22.257812 20.390625 -23.09375 C 19.316406 -23.925781 17.765625 -24.34375 15.734375 -24.34375 L 6.953125 -24.34375 L 6.953125 -14.265625 L 15.890625 -14.265625 C 17.835938 -14.265625 19.34375 -14.71875 20.40625 -15.625 C 21.476562 -16.539062 22.015625 -17.816406 22.015625 -19.453125 Z M 22.015625 -19.453125 "/></g></g></g><g fill="#2e475d" fill-opacity="1"><g transform="translate(1150.631883, 692.849344)"><g/></g></g><g fill="#2e475d" fill-opacity="1"><g transform="translate(1161.65617, 692.849344)"><g/></g></g><g fill="#2e475d" fill-opacity="1"><g transform="translate(1172.680458, 692.849344)"><g/></g></g><g fill="#2e475d" fill-opacity="1"><g transform="translate(1183.702193, 692.849344)"><g><path d="M 24.375 -7.6875 C 24.375 -5.257812 23.488281 -3.367188 21.71875 -2.015625 C 19.945312 -0.671875 17.488281 0 14.34375 0 L 3.25 0 L 3.25 -27.296875 L 13.171875 -27.296875 C 19.585938 -27.296875 22.796875 -25.085938 22.796875 -20.671875 C 22.796875 -19.054688 22.34375 -17.695312 21.4375 -16.59375 C 20.53125 -15.5 19.25 -14.765625 17.59375 -14.390625 C 19.757812 -14.140625 21.429688 -13.414062 22.609375 -12.21875 C 23.785156 -11.019531 24.375 -9.507812 24.375 -7.6875 Z M 19.0625 -20.234375 C 19.0625 -21.703125 18.554688 -22.753906 17.546875 -23.390625 C 16.546875 -24.023438 15.085938 -24.34375 13.171875 -24.34375 L 6.953125 -24.34375 L 6.953125 -15.703125 L 13.171875 -15.703125 C 15.148438 -15.703125 16.625 -16.070312 17.59375 -16.8125 C 18.570312 -17.550781 19.0625 -18.691406 19.0625 -20.234375 Z M 20.640625 -7.984375 C 20.640625 -11.203125 18.378906 -12.8125 13.859375 -12.8125 L 6.953125 -12.8125 L 6.953125 -2.96875 L 14.140625 -2.96875 C 16.398438 -2.96875 18.046875 -3.382812 19.078125 -4.21875 C 20.117188 -5.0625 20.640625 -6.316406 20.640625 -7.984375 Z M 20.640625 -7.984375 "/></g></g></g><g fill="#2e475d" fill-opacity="1"><g transform="translate(1210.168232, 692.849344)"><g/></g></g><g fill="#2e475d" fill-opacity="1"><g transform="translate(1221.192519, 692.849344)"><g><path d="M 14.171875 0.390625 C 11.929688 0.390625 9.976562 -0.015625 8.3125 -0.828125 C 6.644531 -1.640625 5.351562 -2.820312 4.4375 -4.375 C 3.519531 -5.925781 3.0625 -7.773438 3.0625 -9.921875 L 3.0625 -27.296875 L 6.765625 -27.296875 L 6.765625 -10.234375 C 6.765625 -7.734375 7.394531 -5.835938 8.65625 -4.546875 C 9.925781 -3.253906 11.753906 -2.609375 14.140625 -2.609375 C 16.597656 -2.609375 18.507812 -3.273438 19.875 -4.609375 C 21.238281 -5.953125 21.921875 -7.910156 21.921875 -10.484375 L 21.921875 -27.296875 L 25.59375 -27.296875 L 25.59375 -10.265625 C 25.59375 -8.054688 25.125 -6.148438 24.1875 -4.546875 C 23.257812 -2.953125 21.9375 -1.726562 20.21875 -0.875 C 18.507812 -0.03125 16.492188 0.390625 14.171875 0.390625 Z M 14.171875 0.390625 "/></g></g></g><g fill="#2e475d" fill-opacity="1"><g transform="translate(1249.847916, 692.849344)"><g/></g></g><g fill="#2e475d" fill-opacity="1"><g transform="translate(1260.872203, 692.849344)"><g><path d="M 24.65625 -7.53125 C 24.65625 -5.019531 23.664062 -3.070312 21.6875 -1.6875 C 19.71875 -0.300781 16.945312 0.390625 13.375 0.390625 C 6.71875 0.390625 2.859375 -1.921875 1.796875 -6.546875 L 5.390625 -7.265625 C 5.796875 -5.628906 6.671875 -4.425781 8.015625 -3.65625 C 9.359375 -2.882812 11.1875 -2.5 13.5 -2.5 C 15.894531 -2.5 17.738281 -2.910156 19.03125 -3.734375 C 20.332031 -4.554688 20.984375 -5.757812 20.984375 -7.34375 C 20.984375 -8.238281 20.78125 -8.960938 20.375 -9.515625 C 19.96875 -10.066406 19.394531 -10.523438 18.65625 -10.890625 C 17.925781 -11.253906 17.050781 -11.554688 16.03125 -11.796875 C 15.007812 -12.046875 13.878906 -12.3125 12.640625 -12.59375 C 10.484375 -13.070312 8.84375 -13.550781 7.71875 -14.03125 C 6.601562 -14.507812 5.722656 -15.039062 5.078125 -15.625 C 4.429688 -16.21875 3.9375 -16.90625 3.59375 -17.6875 C 3.25 -18.476562 3.078125 -19.382812 3.078125 -20.40625 C 3.078125 -22.738281 3.972656 -24.539062 5.765625 -25.8125 C 7.554688 -27.082031 10.117188 -27.71875 13.453125 -27.71875 C 16.546875 -27.71875 18.910156 -27.238281 20.546875 -26.28125 C 22.191406 -25.332031 23.347656 -23.71875 24.015625 -21.4375 L 20.359375 -20.796875 C 19.960938 -22.242188 19.203125 -23.289062 18.078125 -23.9375 C 16.953125 -24.59375 15.394531 -24.921875 13.40625 -24.921875 C 11.226562 -24.921875 9.5625 -24.554688 8.40625 -23.828125 C 7.257812 -23.109375 6.6875 -22.03125 6.6875 -20.59375 C 6.6875 -19.757812 6.90625 -19.066406 7.34375 -18.515625 C 7.789062 -17.960938 8.4375 -17.492188 9.28125 -17.109375 C 10.125 -16.734375 11.796875 -16.269531 14.296875 -15.71875 C 15.140625 -15.519531 15.976562 -15.320312 16.8125 -15.125 C 17.644531 -14.925781 18.441406 -14.6875 19.203125 -14.40625 C 19.960938 -14.125 20.675781 -13.796875 21.34375 -13.421875 C 22.007812 -13.054688 22.585938 -12.597656 23.078125 -12.046875 C 23.566406 -11.503906 23.953125 -10.863281 24.234375 -10.125 C 24.515625 -9.394531 24.65625 -8.53125 24.65625 -7.53125 Z M 24.65625 -7.53125 "/></g></g></g><g fill="#2e475d" fill-opacity="1"><g transform="translate(1287.338242, 692.849344)"><g/></g></g><g fill="#2e475d" fill-opacity="1"><g transform="translate(1298.362529, 692.849344)"><g><path d="M 3.65625 0 L 3.65625 -27.296875 L 7.359375 -27.296875 L 7.359375 0 Z M 3.65625 0 "/></g></g></g><g fill="#2e475d" fill-opacity="1"><g transform="translate(1309.386817, 692.849344)"><g/></g></g><g fill="#2e475d" fill-opacity="1"><g transform="translate(1320.411104, 692.849344)"><g><path d="M 20.96875 0 L 6.359375 -23.25 L 6.453125 -21.375 L 6.546875 -18.140625 L 6.546875 0 L 3.25 0 L 3.25 -27.296875 L 7.5625 -27.296875 L 22.328125 -3.890625 C 22.171875 -6.421875 22.09375 -8.257812 22.09375 -9.40625 L 22.09375 -27.296875 L 25.421875 -27.296875 L 25.421875 0 Z M 20.96875 0 "/></g></g></g><g fill="#2e475d" fill-opacity="1"><g transform="translate(1349.066501, 692.849344)"><g/></g></g><g fill="#2e475d" fill-opacity="1"><g transform="translate(1360.090788, 692.849344)"><g><path d="M 3.25 0 L 3.25 -27.296875 L 23.96875 -27.296875 L 23.96875 -24.28125 L 6.953125 -24.28125 L 6.953125 -15.515625 L 22.8125 -15.515625 L 22.8125 -12.53125 L 6.953125 -12.53125 L 6.953125 -3.015625 L 24.765625 -3.015625 L 24.765625 0 Z M 3.25 0 "/></g></g></g><g fill="#2e475d" fill-opacity="1"><g transform="translate(1386.556827, 692.849344)"><g/></g></g><g fill="#2e475d" fill-opacity="1"><g transform="translate(1397.581125, 692.849344)"><g><path d="M 24.65625 -7.53125 C 24.65625 -5.019531 23.664062 -3.070312 21.6875 -1.6875 C 19.71875 -0.300781 16.945312 0.390625 13.375 0.390625 C 6.71875 0.390625 2.859375 -1.921875 1.796875 -6.546875 L 5.390625 -7.265625 C 5.796875 -5.628906 6.671875 -4.425781 8.015625 -3.65625 C 9.359375 -2.882812 11.1875 -2.5 13.5 -2.5 C 15.894531 -2.5 17.738281 -2.910156 19.03125 -3.734375 C 20.332031 -4.554688 20.984375 -5.757812 20.984375 -7.34375 C 20.984375 -8.238281 20.78125 -8.960938 20.375 -9.515625 C 19.96875 -10.066406 19.394531 -10.523438 18.65625 -10.890625 C 17.925781 -11.253906 17.050781 -11.554688 16.03125 -11.796875 C 15.007812 -12.046875 13.878906 -12.3125 12.640625 -12.59375 C 10.484375 -13.070312 8.84375 -13.550781 7.71875 -14.03125 C 6.601562 -14.507812 5.722656 -15.039062 5.078125 -15.625 C 4.429688 -16.21875 3.9375 -16.90625 3.59375 -17.6875 C 3.25 -18.476562 3.078125 -19.382812 3.078125 -20.40625 C 3.078125 -22.738281 3.972656 -24.539062 5.765625 -25.8125 C 7.554688 -27.082031 10.117188 -27.71875 13.453125 -27.71875 C 16.546875 -27.71875 18.910156 -27.238281 20.546875 -26.28125 C 22.191406 -25.332031 23.347656 -23.71875 24.015625 -21.4375 L 20.359375 -20.796875 C 19.960938 -22.242188 19.203125 -23.289062 18.078125 -23.9375 C 16.953125 -24.59375 15.394531 -24.921875 13.40625 -24.921875 C 11.226562 -24.921875 9.5625 -24.554688 8.40625 -23.828125 C 7.257812 -23.109375 6.6875 -22.03125 6.6875 -20.59375 C 6.6875 -19.757812 6.90625 -19.066406 7.34375 -18.515625 C 7.789062 -17.960938 8.4375 -17.492188 9.28125 -17.109375 C 10.125 -16.734375 11.796875 -16.269531 14.296875 -15.71875 C 15.140625 -15.519531 15.976562 -15.320312 16.8125 -15.125 C 17.644531 -14.925781 18.441406 -14.6875 19.203125 -14.40625 C 19.960938 -14.125 20.675781 -13.796875 21.34375 -13.421875 C 22.007812 -13.054688 22.585938 -12.597656 23.078125 -12.046875 C 23.566406 -11.503906 23.953125 -10.863281 24.234375 -10.125 C 24.515625 -9.394531 24.65625 -8.53125 24.65625 -7.53125 Z M 24.65625 -7.53125 "/></g></g></g><g fill="#2e475d" fill-opacity="1"><g transform="translate(1424.047164, 692.849344)"><g/></g></g><g fill="#2e475d" fill-opacity="1"><g transform="translate(1435.071463, 692.849344)"><g><path d="M 24.65625 -7.53125 C 24.65625 -5.019531 23.664062 -3.070312 21.6875 -1.6875 C 19.71875 -0.300781 16.945312 0.390625 13.375 0.390625 C 6.71875 0.390625 2.859375 -1.921875 1.796875 -6.546875 L 5.390625 -7.265625 C 5.796875 -5.628906 6.671875 -4.425781 8.015625 -3.65625 C 9.359375 -2.882812 11.1875 -2.5 13.5 -2.5 C 15.894531 -2.5 17.738281 -2.910156 19.03125 -3.734375 C 20.332031 -4.554688 20.984375 -5.757812 20.984375 -7.34375 C 20.984375 -8.238281 20.78125 -8.960938 20.375 -9.515625 C 19.96875 -10.066406 19.394531 -10.523438 18.65625 -10.890625 C 17.925781 -11.253906 17.050781 -11.554688 16.03125 -11.796875 C 15.007812 -12.046875 13.878906 -12.3125 12.640625 -12.59375 C 10.484375 -13.070312 8.84375 -13.550781 7.71875 -14.03125 C 6.601562 -14.507812 5.722656 -15.039062 5.078125 -15.625 C 4.429688 -16.21875 3.9375 -16.90625 3.59375 -17.6875 C 3.25 -18.476562 3.078125 -19.382812 3.078125 -20.40625 C 3.078125 -22.738281 3.972656 -24.539062 5.765625 -25.8125 C 7.554688 -27.082031 10.117188 -27.71875 13.453125 -27.71875 C 16.546875 -27.71875 18.910156 -27.238281 20.546875 -26.28125 C 22.191406 -25.332031 23.347656 -23.71875 24.015625 -21.4375 L 20.359375 -20.796875 C 19.960938 -22.242188 19.203125 -23.289062 18.078125 -23.9375 C 16.953125 -24.59375 15.394531 -24.921875 13.40625 -24.921875 C 11.226562 -24.921875 9.5625 -24.554688 8.40625 -23.828125 C 7.257812 -23.109375 6.6875 -22.03125 6.6875 -20.59375 C 6.6875 -19.757812 6.90625 -19.066406 7.34375 -18.515625 C 7.789062 -17.960938 8.4375 -17.492188 9.28125 -17.109375 C 10.125 -16.734375 11.796875 -16.269531 14.296875 -15.71875 C 15.140625 -15.519531 15.976562 -15.320312 16.8125 -15.125 C 17.644531 -14.925781 18.441406 -14.6875 19.203125 -14.40625 C 19.960938 -14.125 20.675781 -13.796875 21.34375 -13.421875 C 22.007812 -13.054688 22.585938 -12.597656 23.078125 -12.046875 C 23.566406 -11.503906 23.953125 -10.863281 24.234375 -10.125 C 24.515625 -9.394531 24.65625 -8.53125 24.65625 -7.53125 Z M 24.65625 -7.53125 "/></g></g></g><g fill="#2e475d" fill-opacity="1"><g transform="translate(809.775027, 703.271703)"><g><path d="M -0.8125 10.203125 L -0.8125 7.015625 L 47.234375 7.015625 L 47.234375 10.203125 Z M -0.8125 10.203125 "/></g></g></g><g fill="#2e475d" fill-opacity="1"><g transform="translate(856.270229, 703.271703)"><g><path d="M -0.8125 10.203125 L -0.8125 7.015625 L 47.234375 7.015625 L 47.234375 10.203125 Z M -0.8125 10.203125 "/></g></g></g><g fill="#2e475d" fill-opacity="1"><g transform="translate(902.76543, 703.271703)"><g><path d="M -0.8125 10.203125 L -0.8125 7.015625 L 47.234375 7.015625 L 47.234375 10.203125 Z M -0.8125 10.203125 "/></g></g></g><g fill="#2e475d" fill-opacity="1"><g transform="translate(949.260631, 703.271703)"><g><path d="M -0.8125 10.203125 L -0.8125 7.015625 L 47.234375 7.015625 L 47.234375 10.203125 Z M -0.8125 10.203125 "/></g></g></g><g fill="#2e475d" fill-opacity="1"><g transform="translate(995.755832, 703.271703)"><g><path d="M -0.8125 10.203125 L -0.8125 7.015625 L 47.234375 7.015625 L 47.234375 10.203125 Z M -0.8125 10.203125 "/></g></g></g><g fill="#2e475d" fill-opacity="1"><g transform="translate(1042.251022, 703.271703)"><g><path d="M -0.8125 10.203125 L -0.8125 7.015625 L 47.234375 7.015625 L 47.234375 10.203125 Z M -0.8125 10.203125 "/></g></g></g><g fill="#2e475d" fill-opacity="1"><g transform="translate(1088.746211, 703.271703)"><g><path d="M -0.8125 10.203125 L -0.8125 7.015625 L 47.234375 7.015625 L 47.234375 10.203125 Z M -0.8125 10.203125 "/></g></g></g><g fill="#2e475d" fill-opacity="1"><g transform="translate(1135.2414, 703.271703)"><g><path d="M -0.8125 10.203125 L -0.8125 7.015625 L 47.234375 7.015625 L 47.234375 10.203125 Z M -0.8125 10.203125 "/></g></g></g><g fill="#2e475d" fill-opacity="1"><g transform="translate(1181.736589, 703.271703)"><g><path d="M -0.8125 10.203125 L -0.8125 7.015625 L 47.234375 7.015625 L 47.234375 10.203125 Z M -0.8125 10.203125 "/></g></g></g><g fill="#2e475d" fill-opacity="1"><g transform="translate(1228.231779, 703.271703)"><g><path d="M -0.8125 10.203125 L -0.8125 7.015625 L 47.234375 7.015625 L 47.234375 10.203125 Z M -0.8125 10.203125 "/></g></g></g><g fill="#2e475d" fill-opacity="1"><g transform="translate(1274.726968, 703.271703)"><g><path d="M -0.8125 10.203125 L -0.8125 7.015625 L 47.234375 7.015625 L 47.234375 10.203125 Z M -0.8125 10.203125 "/></g></g></g><g fill="#2e475d" fill-opacity="1"><g transform="translate(1321.222157, 703.271703)"><g><path d="M -0.8125 10.203125 L -0.8125 7.015625 L 47.234375 7.015625 L 47.234375 10.203125 Z M -0.8125 10.203125 "/></g></g></g><g fill="#2e475d" fill-opacity="1"><g transform="translate(1367.717346, 703.271703)"><g><path d="M -0.8125 10.203125 L -0.8125 7.015625 L 47.234375 7.015625 L 47.234375 10.203125 Z M -0.8125 10.203125 "/></g></g></g><g fill="#2e475d" fill-opacity="1"><g transform="translate(1414.212536, 703.271703)"><g><path d="M -0.8125 10.203125 L -0.8125 7.015625 L 47.234375 7.015625 L 47.234375 10.203125 Z M -0.8125 10.203125 "/></g></g></g><g fill="#2e475d" fill-opacity="1"><g transform="translate(1260.625581, 867.505681)"><g><path d="M 174.640625 0 L 135.125 0 L 112.25 -87.78125 C 111.1875 -91.769531 109.101562 -101.613281 106 -117.3125 L 99.09375 -87.515625 L 75.9375 0 L 36.4375 0 L -0.796875 -143.90625 L 34.3125 -143.90625 L 57.984375 -33.921875 L 59.84375 -43.765625 L 63.171875 -59.3125 L 85.78125 -143.90625 L 125.828125 -143.90625 L 147.90625 -59.3125 C 149.144531 -54.707031 150.960938 -46.242188 153.359375 -33.921875 L 157.078125 -51.46875 L 177.828125 -143.90625 L 212.40625 -143.90625 Z M 174.640625 0 "/></g></g></g><g clip-path="url(#83f011e887)"><path fill="#2e475d" d="M 1071.675781 716.074219 C 1028.578125 716.074219 993.675781 750.980469 993.675781 794.074219 C 993.675781 837.171875 1028.578125 872.074219 1071.675781 872.074219 C 1114.769531 872.074219 1149.675781 837.171875 1149.675781 794.074219 C 1149.675781 750.980469 1114.769531 716.074219 1071.675781 716.074219 Z M 1071.675781 856.476562 C 1037.199219 856.476562 1009.273438 828.550781 1009.273438 794.074219 C 1009.273438 759.601562 1037.199219 731.675781 1071.675781 731.675781 C 1106.148438 731.675781 1134.074219 759.601562 1134.074219 794.074219 C 1134.074219 828.550781 1106.148438 856.476562 1071.675781 856.476562 Z M 1071.675781 856.476562 " fill-opacity="1" fill-rule="nonzero"/></g></svg>